<svg width="48" height="52" viewBox="0 0 48 52" fill="none" xmlns="http://www.w3.org/2000/svg">
<g id="&#208;&#160;&#208;&#181;&#209;&#129;&#209;&#131;&#209;&#128;&#209;&#129; 1 4" clip-path="url(#clip0_43_303)">
<g id="&#208;&#161;&#208;&#187;&#208;&#190;&#208;&#185; 1">
<g id="Group">
<path id="Vector" d="M42.5029 30.3012C39.0498 38.3502 34.2418 43.2131 30.8116 45.8747C27.0846 48.7643 24.2147 49.7302 24.0985 49.7717L24.0321 49.7924L23.9657 49.7717C23.8474 49.7302 20.9775 48.7643 17.2526 45.8747C13.8245 43.2152 9.01431 38.3522 5.55921 30.3012C1.77001 21.4625 1.98167 5.67344 1.98582 5.51383V5.32727L2.15391 5.24229C2.405 5.10962 8.47478 2.05629 24.03 2.05214C39.5915 2.05629 45.6592 5.10755 45.9102 5.24229L46.0783 5.32727V5.51383C46.0866 5.67344 46.2942 21.4625 42.5029 30.3012ZM47.9812 4.37997L47.9709 4.02344L47.6637 3.84932L47.4957 3.75811C47.2238 3.60472 40.656 0 23.9989 0C7.34175 0 0.771867 3.60472 0.500024 3.75811L0.336088 3.84932L0.0289678 4.02344L0.0185921 4.37997L0.0123667 4.57068C0.00821638 4.73858 -0.402661 21.5268 3.66046 31.0474C7.3708 39.7203 12.5918 44.9212 16.3229 47.7506C20.3985 50.8475 23.5776 51.8694 23.7104 51.9067L23.8142 51.9378L23.9989 51.9979L24.1877 51.9378L24.2894 51.9067C24.4243 51.8673 27.6055 50.8475 31.679 47.7506C35.4059 44.9212 40.6311 39.7203 44.3352 31.0474C48.4046 21.5205 47.9937 4.73858 47.9875 4.57068L47.9833 4.37997H47.9812Z" fill="white"/>
<path id="Vector_2" d="M14.472 20.0385L12.2246 16.7033L11.1476 17.9263V20.0385H8.37731V11.2806H11.1476V14.4646L14.0175 11.2806H16.985L13.8847 14.817L17.4 20.0406H14.472V20.0385ZM22.4882 17.7335L14.8787 5.30249C8.48522 5.88911 5.50947 6.96493 4.92221 7.20124L4.91183 7.3567C4.82883 8.48849 4.39512 16.355 6.81266 24.9761H18.0661L22.4882 17.7314V17.7335Z" fill="white"/>
<path id="Vector_3" d="M28.2903 41.0968H25.5325V37.5563H22.536V41.0968H19.7761V32.2208H22.536V35.4171H25.5325V32.2208H28.2903V41.0968ZM30.6581 30.5044H30.3074L24.0135 20.2271V20.1877L23.999 20.2043L17.6553 30.4878H8.74878C9.84653 33.0022 11.2369 35.4689 13.0132 37.7532C16.6675 42.2493 20.4712 44.5999 22.5132 45.6384C22.5173 45.6447 22.5277 45.6488 22.5381 45.655C23.4615 46.1214 23.999 46.3349 23.999 46.3349C23.999 46.3349 24.1069 46.2976 24.304 46.2188C25.6155 45.6136 26.8419 44.944 27.9812 44.2102C29.662 43.0867 31.7122 41.4699 33.7749 39.198C36.124 36.5365 37.8858 33.5515 39.2118 30.5065H30.656L30.6581 30.5044Z" fill="white"/>
<path id="Vector_4" d="M40.432 20.0446H32.5942V11.2722H35.3064V17.9012H39.1454L40.432 20.0073V20.0466V20.0446ZM43.0612 7.20315C42.4801 6.96684 39.4919 5.88688 33.0735 5.29818L33.005 5.41219L33.0818 5.26709L25.4723 17.7043L29.8944 24.9428L29.8488 24.8598L29.9193 24.9801H41.1707C43.5924 16.359 43.1545 8.49455 43.0778 7.36069L43.0612 7.20522V7.20315Z" fill="white"/>
<path id="Vector_5" d="M30.2244 5.08879C28.3754 4.98307 26.3086 4.9126 23.999 4.9126C21.6893 4.9126 19.6246 4.981 17.7798 5.08879L23.999 15.2769L30.2244 5.08879Z" fill="white"/>
</g>
</g>
</g>
<defs>
<clipPath id="clip0_43_303">
<rect width="48" height="52" fill="white"/>
</clipPath>
</defs>
</svg>
