<svg width="175" height="58" viewBox="0 0 175 58" fill="none" xmlns="http://www.w3.org/2000/svg">
<g id="logo (1) 1" clip-path="url(#clip0_42_251)">
<path id="Vector" d="M69.1377 9.34385C69.1377 27.3438 69.1377 32.2632 69.1377 45.0178L60.18 39.4759V34.3437V32.4986V26.2117V24.368V15.6015C57.9856 14.3577 55.6088 13.2722 53.0816 12.3649C28.4551 27.5128 25.924 29.0093 0.0479126 45.0192V35.4572V22.2369V9.34518C9.53252 3.49729 21.5363 0 34.5928 0C47.6506 0 59.6531 3.49596 69.1377 9.34385Z" fill="white"/>
<path id="Vector_2" fill-rule="evenodd" clip-rule="evenodd" d="M86.0827 24.0992H79.5165L78.5397 26.193H74.3757V25.5744L81.8707 9.3291H83.7032L91.2222 25.5744V26.193H87.0582L86.0827 24.0992ZM82.7757 16.0829L80.8966 20.4595H84.7027L82.7757 16.0829Z" fill="white"/>
<path id="Vector_3" fill-rule="evenodd" clip-rule="evenodd" d="M103.931 17.5331C105.289 18.2235 105.932 19.4606 105.932 20.9359C105.908 23.8386 104.146 26.1932 100.743 26.1932H92.939V9.54346H100.053C102.935 9.54346 105.241 11.7797 105.241 14.6557C105.241 15.656 104.742 16.8693 103.931 17.5331ZM97.0565 13.348V16.0365H99.7447C101.433 16.0365 101.433 13.348 99.7194 13.348H97.0565ZM97.0565 19.5804V22.4099H100.459C102.172 22.4099 102.148 19.5804 100.434 19.5804H97.0565Z" fill="white"/>
<path id="Vector_4" d="M106.702 13.348V9.54346H119.076V13.348H115.006V26.1932H110.794V13.348H106.702Z" fill="white"/>
<path id="Vector_5" d="M88.224 44.6946H83.8696V38.0113H78.73V44.6946H74.3757V28.0449H78.73V34.0857H83.8696V28.0449H88.224V44.6946Z" fill="white"/>
<path id="Vector_6" d="M122.471 27.9956H123.993V44.6946H119.639V37.2743L116.094 40.9831H115.617L112.094 37.2743V44.6946H107.74V27.9956H109.312L115.831 35.227L122.471 27.9956Z" fill="white"/>
<path id="Vector_7" d="M142.273 44.6946V28.0449H146.603V34.3491H146.915C151.172 34.3491 150.959 31.1591 150.959 28.0449H155.337C155.337 31.4451 155.432 34.5859 152.125 36.7024L156.646 44.0282V44.6946H151.911L148.247 38.2481C147.676 38.3439 147.15 38.3439 146.603 38.3439V44.6946H142.273Z" fill="white"/>
<path id="Vector_8" fill-rule="evenodd" clip-rule="evenodd" d="M169.771 42.6021H163.205L162.228 44.6959H158.063V44.0774L165.559 27.832H167.392L174.911 44.0774V44.6959H170.747L169.771 42.6021ZM166.464 34.5858L164.585 38.9611H168.391L166.464 34.5858Z" fill="white"/>
<path id="Vector_9" fill-rule="evenodd" clip-rule="evenodd" d="M97.7325 44.873C93.0148 44.873 89.1755 41.0351 89.1755 36.3193C89.1755 31.6021 93.0148 27.7656 97.7325 27.7656C102.452 27.7656 106.29 31.6021 106.29 36.3193C106.29 41.0351 102.452 44.873 97.7325 44.873ZM97.7325 31.5902C95.1241 31.5902 93.0015 33.7106 93.0015 36.3193C93.0015 38.9266 95.1241 41.0471 97.7325 41.0471C100.342 41.0471 102.463 38.9266 102.463 36.3193C102.463 33.7106 100.342 31.5902 97.7325 31.5902Z" fill="white"/>
<path id="Vector_10" fill-rule="evenodd" clip-rule="evenodd" d="M127.983 26.3714C123.264 26.3714 119.426 22.5322 119.426 17.8177C119.426 13.1005 123.264 9.2627 127.983 9.2627C132.701 9.2627 136.539 13.1005 136.539 17.8177C136.539 22.5322 132.701 26.3714 127.983 26.3714ZM127.983 13.0872C125.373 13.0872 123.252 15.209 123.252 17.8177C123.252 20.425 125.373 22.5455 127.983 22.5455C130.591 22.5455 132.714 20.425 132.714 17.8177C132.714 15.209 130.591 13.0872 127.983 13.0872Z" fill="white"/>
<path id="Vector_11" d="M125.444 41.3835L125.489 28.0103H129.846L129.801 36.9045L125.444 41.3835Z" fill="white"/>
<path id="Vector_12" d="M140.92 32.1409L140.908 44.6734H136.551L136.604 38.0659L140.92 32.1409Z" fill="white"/>
<path id="Vector_13" d="M140.945 28.7525L126.262 44.6733L125.444 44.6946V43.1381L125.621 42.9466L139.345 27.9956H140.945V28.7525Z" fill="white"/>
<path id="Vector_14" d="M130.573 40.9246L133.315 41.1826L130.719 44.6946C129.052 44.6613 128.175 44.6946 127.054 44.6946L130.573 40.9246Z" fill="white"/>
<path id="Vector_15" d="M138.673 32.2354L139.814 32.3431L138.659 33.9142L137.233 33.7798L138.673 32.2354Z" fill="white"/>
<path id="Vector_16" d="M136.456 34.6125L138.036 34.7615L136.621 36.6851L134.694 36.5029L136.456 34.6125Z" fill="white"/>
<path id="Vector_17" d="M140.92 30.2837V30.8371L140.254 31.743L139.223 31.6459L140.492 30.2837H140.92Z" fill="white"/>
<path id="Vector_18" d="M133.917 37.3369L135.998 37.5325L134.178 40.0094L131.648 39.77L133.917 37.3369Z" fill="white"/>
<path id="Vector_19" d="M57.4918 44.5098L66.3137 49.9679C63.9981 51.217 61.5614 52.3384 59.0103 53.3082C46.8521 58.9127 40.3791 57.6422 33.8276 57.8604C24.0542 58.1863 10.4907 54.0917 2.86786 49.9719L11.6937 44.5098C18.2399 47.6386 26.1169 49.4637 34.5928 49.4637C43.07 49.4637 50.9456 47.6386 57.4918 44.5098Z" fill="white"/>
<path id="Vector_20" d="M26.3671 35.3787L32.5846 37.7372L23.9078 44.5895C21.1996 43.7581 18.5913 42.7936 16.1093 41.6935L26.3671 35.3787Z" fill="white"/>
<path id="Vector_21" d="M50.7912 20.344L53.3757 21.3244L49.68 24.2404L46.4515 23.0152L50.7912 20.344Z" fill="white"/>
<path id="Vector_22" d="M44.108 24.4583L47.6865 25.8151L43.1645 29.3856L38.7954 27.7281L44.108 24.4583Z" fill="white"/>
<path id="Vector_23" d="M58.0428 17.6396L54.7863 20.211L52.4481 19.325L56.2755 16.9678L58.0428 17.6396Z" fill="white"/>
<path id="Vector_24" d="M36.4519 29.1702L41.1696 30.9607L35.346 35.5581L29.6116 33.3818L36.4519 29.1702Z" fill="white"/>
</g>
<defs>
<clipPath id="clip0_42_251">
<rect width="175" height="58" fill="white"/>
</clipPath>
</defs>
</svg>
