<svg width="50" height="38" viewBox="0 0 50 38" fill="none" xmlns="http://www.w3.org/2000/svg">
<g id="&#208;&#160;&#208;&#181;&#209;&#129;&#209;&#131;&#209;&#128;&#209;&#129; 1 2" clip-path="url(#clip0_42_248)">
<g id="&#208;&#161;&#208;&#187;&#208;&#190;&#208;&#185; 1">
<path id="Vector" d="M9.92778 0.031262C11.4727 -0.0435203 13.0325 0.00586418 14.5521 0.31487C16.3584 0.670439 18.1323 1.47188 19.3759 2.87017C19.3809 2.0652 19.3759 1.26023 19.3788 0.455263C21.1028 0.453853 22.8268 0.452442 24.5516 0.455263C24.553 5.23639 24.5495 10.0182 24.5537 14.7994C26.5678 12.5058 28.5706 10.2024 30.5896 7.91304C32.7048 7.91515 34.8207 7.90951 36.9359 7.91586C34.7477 10.2856 32.5391 12.6363 30.3459 15.0011C30.2574 15.0653 30.3368 15.1606 30.3705 15.229C32.565 19.0422 34.7519 22.8596 36.9436 26.6735C37.096 26.9522 37.2758 27.2175 37.4022 27.5109C35.5904 27.5145 33.7785 27.5109 31.9674 27.5124C31.8642 27.537 31.8178 27.4333 31.775 27.3649C30.1753 24.4872 28.5636 21.6158 26.9652 18.7374C26.8852 18.7946 26.8072 18.8545 26.7405 18.9272C26.0144 19.6976 25.2826 20.4631 24.553 21.2306C24.5502 23.3238 24.553 25.4163 24.5516 27.5095C22.8275 27.5166 21.1035 27.5102 19.3795 27.5131C19.3738 26.9176 19.3823 26.3222 19.3745 25.7267C18.5171 26.4421 17.5086 26.9564 16.4503 27.2972C14.8471 27.8157 13.1518 27.978 11.4742 27.9829C9.86388 27.9928 8.23745 27.8291 6.6967 27.3388C5.25918 26.8859 3.91014 26.0992 2.88695 24.9789C1.30055 23.2864 0.544924 20.9851 0.275959 18.7148C2.04214 18.5314 3.80902 18.3501 5.578 18.1942C5.8252 19.608 6.33925 21.0599 7.42704 22.0434C8.47762 23.0057 9.93691 23.364 11.3281 23.3746C12.5634 23.3803 13.8583 23.2364 14.9384 22.588C15.706 22.1019 16.371 21.3788 16.6245 20.4878C16.838 19.7131 16.7692 18.8214 16.2846 18.1603C15.8134 17.5092 15.0564 17.1592 14.3267 16.8862C12.0022 16.0961 9.56261 15.7073 7.24937 14.8833C6.14964 14.4833 5.06044 14.0064 4.11801 13.3002C2.83709 12.3005 1.83286 10.8987 1.45716 9.30004C1.11586 7.87212 1.1917 6.33414 1.74438 4.96901C2.14186 3.98767 2.74018 3.08323 3.52249 2.36927C4.26548 1.68353 5.15454 1.16922 6.09416 0.806599C7.3189 0.340974 8.62369 0.113099 9.92778 0.031262ZM7.75359 5.21876C7.37999 5.4297 7.01552 5.68791 6.77605 6.05265C6.32942 6.72569 6.34627 7.67458 6.81608 8.33139C7.18055 8.85769 7.75359 9.17869 8.32804 9.42491C9.60966 9.96531 10.9622 10.3047 12.3091 10.6341C13.7776 10.989 15.2397 11.3834 16.6547 11.9174C17.6189 12.2822 18.5634 12.7323 19.3759 13.3785C19.3802 11.6797 19.3781 9.98084 19.3759 8.2813C18.2383 8.32786 17.1006 8.39065 15.9623 8.42593C15.7972 7.42624 15.4609 6.40116 14.7326 5.66886C14.1814 5.11575 13.4313 4.81169 12.6757 4.66706C11.9088 4.51608 11.123 4.5055 10.3449 4.5436C9.45095 4.60498 8.54504 4.78064 7.75289 5.21876H7.75359ZM3.10816 29.1089C4.1145 28.9233 5.21844 29.0278 6.09627 29.5879C6.95794 30.1163 7.50219 31.1005 7.538 32.1093C7.05906 32.1122 6.58012 32.103 6.10118 32.115C5.9818 31.643 5.83573 31.1217 5.41157 30.8331C4.50214 30.2306 3.15451 30.2652 2.36517 31.0582C1.74578 31.6719 1.54353 32.5806 1.54494 33.4279C1.55056 34.2632 1.67766 35.1493 2.18189 35.84C2.52178 36.3176 3.10746 36.549 3.67418 36.5949C4.33009 36.6816 5.05271 36.4827 5.48881 35.9606C5.89191 35.5303 6.04992 34.944 6.16579 34.381C6.65526 34.386 7.14474 34.3803 7.63421 34.3839C7.52887 35.1352 7.3526 35.907 6.89965 36.5307C6.41509 37.1656 5.73882 37.6912 4.94737 37.857C3.8673 38.1399 2.64959 38.0171 1.71278 37.3815C0.766135 36.755 0.239442 35.6552 0.0786251 34.5539C-0.101855 33.2974 0.00278136 31.9414 0.657987 30.8296C1.17625 29.9329 2.09551 29.2972 3.10816 29.1089ZM15.8296 31.3277C16.6182 31.1901 17.4869 31.3213 18.1266 31.8286C18.6898 32.2504 19.0543 32.8931 19.2243 33.5697C19.4609 34.4777 19.3816 35.4682 18.9876 36.3204C18.6302 37.0887 17.9251 37.7117 17.0866 37.8789C16.3001 38.0369 15.4265 37.936 14.7656 37.4528C14.1954 37.0534 13.8056 36.4326 13.6224 35.7645C13.3485 34.8114 13.4201 33.7546 13.8527 32.86C14.2284 32.0804 14.9693 31.4673 15.8296 31.3277ZM16.0416 32.5968C15.7706 32.6498 15.5381 32.8191 15.3717 33.0364C15.0248 33.4597 14.9321 34.0255 14.9033 34.5574C14.911 35.1938 15.0367 35.8908 15.5149 36.3494C15.8331 36.6711 16.3253 36.7049 16.7481 36.6365C17.1863 36.561 17.5079 36.1906 17.6856 35.8026C17.9384 35.1775 17.9735 34.4706 17.8141 33.8173C17.7263 33.43 17.5318 33.0582 17.2228 32.8043C16.8914 32.5489 16.4391 32.5115 16.0416 32.5968ZM34.1121 31.3552C34.8818 31.1887 35.7385 31.2769 36.4015 31.727C36.9275 32.0811 37.3228 32.6166 37.5293 33.2163C37.8903 34.2174 37.8467 35.3624 37.398 36.3282C37.0391 37.1 36.3263 37.7173 35.4857 37.8831C34.7161 38.0298 33.8635 37.9388 33.2111 37.4753C32.6893 37.1184 32.3073 36.5772 32.1051 35.9804C31.7525 34.9751 31.8031 33.8307 32.2617 32.8685C32.6198 32.127 33.3017 31.5301 34.1121 31.3552ZM34.4464 32.599C34.2097 32.6519 33.9948 32.7852 33.8396 32.9715C33.4429 33.4194 33.3263 34.0445 33.3235 34.6273C33.3291 35.2544 33.4759 35.9388 33.9583 36.3762C34.2554 36.6555 34.6901 36.6951 35.0756 36.6499C35.3523 36.6203 35.6135 36.4827 35.794 36.2703C36.1964 35.8308 36.313 35.2079 36.3221 34.6294C36.3179 34.0297 36.1992 33.3799 35.7715 32.9312C35.4457 32.5651 34.9022 32.4945 34.4464 32.599ZM46.3279 31.358C47.1004 31.1873 47.9606 31.274 48.6271 31.7249C49.1524 32.0776 49.5477 32.6102 49.7563 33.2085C50.1194 34.211 50.0772 35.3588 49.6292 36.3275C49.2781 37.0788 48.5955 37.6863 47.7801 37.8676C46.9725 38.0433 46.0652 37.9445 45.389 37.4379C44.8581 37.0563 44.4816 36.4827 44.2948 35.8583C43.9859 34.8841 44.0512 33.7912 44.4922 32.8678C44.8461 32.1291 45.5245 31.5365 46.3279 31.358ZM46.6685 32.6011C46.4325 32.6554 46.2183 32.7894 46.0638 32.9771C45.6706 33.4251 45.5568 34.0473 45.5519 34.6273C45.5603 35.2523 45.7043 35.9338 46.1839 36.3712C46.5034 36.6753 46.9817 36.7028 47.3946 36.6358C47.8279 36.5596 48.1481 36.2012 48.3223 35.8146C48.4936 35.4209 48.554 34.9849 48.5582 34.5574C48.528 33.9796 48.4164 33.3531 47.9943 32.9263C47.6678 32.5602 47.1228 32.496 46.6685 32.6011ZM7.98112 31.4525C8.43619 31.4377 8.89195 31.449 9.34772 31.4455C9.35544 32.1806 9.34491 32.9164 9.35334 33.653C10.1125 32.9312 10.8365 32.1686 11.6076 31.4624C12.2249 31.4236 12.8471 31.4546 13.4665 31.4476C12.7031 32.1877 11.9173 32.9037 11.1441 33.6332C11.8176 34.8587 12.4938 36.082 13.1666 37.3074C13.2614 37.4781 13.385 37.6305 13.5065 37.7836C12.899 37.7907 12.2909 37.7907 11.6834 37.7836C11.156 36.7628 10.6694 35.7194 10.1328 34.7042C10.0149 34.7218 9.94744 34.8438 9.85966 34.9158C9.69744 35.0999 9.48536 35.2424 9.35614 35.4534C9.34069 36.2315 9.35544 37.0097 9.34982 37.7879C8.89336 37.7879 8.43759 37.7879 7.98112 37.7879C7.98042 35.6763 7.98112 33.5648 7.98112 31.4532V31.4525ZM20.6246 31.4575C22.1688 31.43 23.7138 31.4539 25.2588 31.4455C25.2588 33.5598 25.2644 35.6742 25.2567 37.7893C24.7882 37.7857 24.3205 37.7893 23.8528 37.7864C23.8507 36.0897 23.8528 34.3937 23.8514 32.697C23.2264 32.6949 22.6021 32.6949 21.9771 32.697C21.9771 33.787 21.9771 34.8777 21.9771 35.9677C21.9771 36.5314 21.7973 37.1325 21.3718 37.5198C20.8352 37.9586 20.0986 37.876 19.4532 37.8831C19.4518 37.4365 19.449 36.9907 19.4546 36.5448C19.8121 36.5243 20.1906 36.604 20.5319 36.4693C20.6372 36.3 20.6196 36.089 20.6281 35.8986C20.6253 34.4184 20.6302 32.9376 20.6253 31.4568L20.6246 31.4575ZM26.4273 31.4518C26.8831 31.4384 27.3395 31.4483 27.7953 31.4455C27.803 32.1806 27.7897 32.9171 27.803 33.653C28.5264 32.9538 29.2349 32.2385 29.9541 31.5344C30.0559 31.4116 30.223 31.4497 30.3628 31.4434C30.8782 31.4532 31.3937 31.4321 31.9091 31.4561C31.1444 32.1912 30.3564 32.9016 29.5917 33.6374C30.2581 34.8481 30.9267 36.058 31.591 37.27C31.6907 37.4556 31.8206 37.6235 31.9541 37.7864C31.3466 37.7738 30.7329 37.8175 30.1289 37.7667C29.5966 36.7487 29.0959 35.7123 28.5846 34.6837C28.2904 34.8946 28.0615 35.1818 27.7974 35.428C27.7939 36.216 27.8051 37.0041 27.7918 37.7921C27.3381 37.7836 26.8852 37.7886 26.4322 37.7893C26.4119 35.677 26.4217 33.5641 26.4273 31.4518ZM38.2561 31.4525C39.2533 31.437 40.2512 31.4497 41.2492 31.4455C41.7702 31.4511 42.337 31.5012 42.7555 31.8476C43.3482 32.3443 43.4851 33.2868 43.0884 33.9465C42.9978 34.1299 42.8201 34.247 42.7141 34.4191C42.9584 34.5955 43.2667 34.7013 43.4339 34.9701C43.7387 35.4449 43.7127 36.0658 43.5343 36.5822C43.3826 37.0386 43.0034 37.3878 42.568 37.5692C42.1326 37.7589 41.6501 37.7879 41.1824 37.7879C40.2063 37.7879 39.2309 37.7907 38.2554 37.7857C38.2568 35.6749 38.2554 33.5634 38.2554 31.4525H38.2561ZM39.6698 33.945C40.1712 33.9323 40.674 33.9584 41.1754 33.9309C41.4037 33.9041 41.6951 33.8794 41.8131 33.6466C41.9065 33.4223 41.936 33.1485 41.8278 32.9249C41.6993 32.7379 41.443 32.7372 41.2414 32.7097C40.7161 32.6822 40.1902 32.7013 39.6642 32.697C39.6642 33.1126 39.6557 33.5288 39.6698 33.945ZM39.6642 35.155C39.667 35.6107 39.6515 36.0672 39.6691 36.5229C40.1852 36.5765 40.7218 36.5328 41.2456 36.5448C41.556 36.5187 41.9655 36.5413 42.153 36.2386C42.278 35.974 42.2913 35.6213 42.1087 35.3814C41.9198 35.2058 41.641 35.1959 41.4001 35.1655C40.8215 35.1423 40.2421 35.1592 39.6642 35.155Z" fill="white"/>
</g>
</g>
<defs>
<clipPath id="clip0_42_248">
<rect width="50" height="38" fill="white"/>
</clipPath>
</defs>
</svg>
