<svg width="51" height="38" viewBox="0 0 51 38" fill="none" xmlns="http://www.w3.org/2000/svg">
<g id="&#208;&#160;&#208;&#181;&#209;&#129;&#209;&#131;&#209;&#128;&#209;&#129; 1 3" clip-path="url(#clip0_42_286)">
<g id="&#208;&#161;&#208;&#187;&#208;&#190;&#208;&#185; 1">
<g id="Group">
<path id="Vector" fill-rule="evenodd" clip-rule="evenodd" d="M23.5069 0.0294175C23.4923 0.102961 23.4704 1.36791 23.412 4.82446C23.3828 6.50126 23.3464 8.53842 23.3318 9.35475C23.3099 10.4726 23.3245 10.833 23.3901 10.833C23.5799 10.8403 25.6963 10.9433 26.1269 10.9654C26.5502 10.9948 26.5794 10.9874 26.5867 10.833C26.594 10.7447 26.6013 10.5903 26.6159 10.4873C26.6232 10.3844 26.6597 9.92104 26.6888 9.45771C26.718 8.99439 26.7545 8.56048 26.7618 8.50165C26.7764 8.44281 26.791 8.3472 26.791 8.30308C26.7983 8.24424 26.8932 8.22218 27.0756 8.23689C27.2216 8.25895 27.4332 8.27366 27.55 8.27366C27.6741 8.28101 27.7471 8.31779 27.7471 8.39133C27.7471 8.45752 27.8492 8.71492 27.9733 8.96497C28.5279 10.0755 29.3818 10.8403 30.4984 11.2301C31.0749 11.4287 31.5055 11.4802 32.5273 11.4728C33.2206 11.4728 33.5125 11.436 33.9504 11.3037C35.1983 10.9212 36.1836 10.0975 36.7674 8.93555C37.6286 7.21463 37.7453 4.52293 37.0228 2.90497C36.4828 1.6915 35.1545 0.676602 33.8044 0.448616C32.5492 0.227985 31.4909 0.257403 30.6955 0.529514C29.4183 0.963422 28.5352 1.75034 27.9952 2.9491L27.8127 3.34624L27.477 3.33888L27.1413 3.33153L27.1924 2.55196C27.2216 2.12541 27.2581 1.47087 27.28 1.11051C27.3019 0.742791 27.3311 0.411844 27.3457 0.360364C27.3603 0.308883 27.353 0.257403 27.3238 0.23534C27.2654 0.198568 26.4042 0.139733 25.0468 0.080898C24.5432 0.0514806 23.9959 0.0220631 23.828 0.00735436C23.6529 -0.00735436 23.5069 0 23.5069 0.0294175ZM33.06 6.28798C33.6511 6.47184 34.0233 6.87633 33.9796 7.31024C33.9723 7.42055 33.965 7.56764 33.9577 7.63383C33.9431 7.8324 33.5271 8.26631 33.2644 8.35456C32.8849 8.47958 32.2791 8.48694 31.7756 8.36927C31.4034 8.28837 31.2501 8.20747 30.9874 7.95742C30.7028 7.68531 30.6663 7.60441 30.6663 7.3323C30.6663 6.76602 30.9509 6.39094 31.5274 6.22179C31.7756 6.14825 32.7389 6.19238 33.06 6.28798Z" fill="white"/>
<path id="Vector_2" fill-rule="evenodd" clip-rule="evenodd" d="M8.17376 0.0808565C8.15917 0.0955653 7.96942 0.117628 7.75048 0.139691C6.40764 0.250007 5.13779 0.867773 4.31311 1.79442C3.78765 2.38277 3.33518 3.35355 3.18192 4.1993C3.16002 4.3611 3.12353 4.55966 3.10164 4.64056C3.04326 4.94209 3.07975 6.52328 3.15273 7.00867C3.57601 9.54592 5.24726 11.0683 7.75778 11.1933C8.54596 11.2374 9.32685 11.1565 10.1223 10.9506C10.7646 10.7888 11.9833 10.3255 11.9833 10.2446C11.9833 10.2005 11.8301 9.65624 11.6476 9.02376C11.4652 8.39129 11.3046 7.81765 11.2827 7.75146C11.2462 7.64114 11.217 7.64114 10.947 7.73675C9.99827 8.07505 8.55326 8.20008 8.00591 7.9868C7.34179 7.7294 7.05717 6.92042 7.44396 6.36884C7.51694 6.26588 7.73588 6.10408 7.93293 6.00847C8.23944 5.85403 8.3927 5.82462 9.02033 5.82462C9.71364 5.82462 9.94718 5.83932 10.874 5.96435C11.217 6.01583 11.2535 6.00847 11.2608 5.88345C11.2608 5.80255 11.2754 5.67753 11.29 5.59663C11.3046 5.51573 11.3411 5.25097 11.363 5.00828C11.3922 4.76559 11.4287 4.41993 11.4506 4.23607C11.5017 3.80217 11.5163 3.64037 11.5819 3.0226C11.6111 2.73578 11.6476 2.44896 11.6549 2.38277C11.706 2.11802 11.7936 1.24285 11.7936 0.933963C11.8009 0.625079 11.7863 0.610371 11.5236 0.514764C11.1878 0.397094 10.3194 0.213235 9.82311 0.1544C9.41443 0.10292 8.20295 0.0514391 8.17376 0.0808565Z" fill="white"/>
<path id="Vector_3" fill-rule="evenodd" clip-rule="evenodd" d="M16.5081 0.271994C15.8221 0.382309 15.6688 0.426436 15.1215 0.639712C13.6765 1.19864 12.6255 2.36063 12.1877 3.90505C12.0417 4.41985 12.0198 4.64784 12.0271 5.74364C12.0344 6.77325 12.0563 7.09684 12.1877 7.55281C12.8372 9.95034 14.6617 11.2888 17.2744 11.2815C20.7409 11.2741 22.8136 9.10458 22.8136 5.48624C22.8136 2.63274 21.3759 0.801508 18.7705 0.338183C18.2012 0.235222 16.9606 0.19845 16.5081 0.271994ZM18.5734 6.17755C19.1573 6.46437 19.3251 6.96447 19.0332 7.53811C18.6099 8.35444 16.8 8.49417 16.114 7.77344C15.7345 7.37631 15.7564 6.70706 16.1505 6.36876C16.6978 5.91279 17.8509 5.81718 18.5734 6.17755Z" fill="white"/>
<path id="Vector_4" fill-rule="evenodd" clip-rule="evenodd" d="M40.7303 0.220748C40.7157 0.235457 40.4529 0.272229 40.1537 0.294292C39.5188 0.353127 38.5263 0.522277 38.0008 0.654656C37.7162 0.735554 37.6359 0.787034 37.6432 0.89735C37.6578 1.04444 37.7162 1.62543 37.7819 2.14024C38.0811 4.53041 38.1614 5.30997 38.1322 5.3688C38.103 5.40558 38.1614 5.41293 38.2635 5.38351C38.4825 5.32468 39.3436 5.14817 39.8253 5.06727C40.0296 5.03786 40.7667 5.00844 41.4674 5.00844C42.5985 5.00844 42.781 5.02315 43.0364 5.15553C43.2773 5.2732 43.3356 5.34674 43.3502 5.53795C43.3721 5.74388 43.3429 5.78065 43.1824 5.82477C42.9999 5.8689 42.1534 5.83948 40.92 5.72917C39.8764 5.64827 39.8983 5.64091 39.8837 5.89096C39.818 7.19269 39.8107 7.5457 39.8545 7.55305C39.8764 7.5604 40.0005 7.56776 40.1172 7.58247C40.2413 7.58982 40.5843 7.61924 40.8835 7.64866C41.4528 7.70014 42.0001 7.74426 42.7372 7.8031C43.4086 7.85458 43.6057 8.11934 43.2481 8.4797C43.0583 8.67091 43.051 8.67091 42.2482 8.61943C40.9492 8.53853 40.3216 8.41351 39.0079 7.96489C38.6357 7.83987 38.3219 7.75162 38.3073 7.77368C38.2927 7.78839 38.0957 8.33997 37.8767 8.99451L37.4753 10.1786L38.03 10.436C39.0444 10.9066 40.4894 11.2891 41.752 11.4214C42.5621 11.5097 44.0217 11.4729 44.5982 11.3479C46.0432 11.0317 46.7803 10.2227 46.8095 8.93567C46.8168 8.33997 46.7073 7.95019 46.4154 7.53834C46.2038 7.24417 46.0651 7.10443 45.7075 6.83232C45.6053 6.75878 45.6199 6.72936 45.8097 6.57492C46.5687 5.97186 46.919 5.22907 46.9701 4.0965C47.0503 2.37558 45.8243 0.89735 43.8757 0.367836C43.5254 0.272229 43.0656 0.235457 42.0804 0.220748C41.3506 0.20604 40.7449 0.20604 40.7303 0.220748Z" fill="white"/>
<path id="Vector_5" fill-rule="evenodd" clip-rule="evenodd" d="M41.3214 15.959L41.3286 18.5771L41.5987 18.5845C41.7446 18.5918 42.0366 18.6065 42.2336 18.6212C42.7445 18.658 43.5108 18.7095 43.7516 18.7168L43.9486 18.7242V21.4821C43.9486 22.9971 43.9705 24.24 44.007 24.2473C44.2041 24.2767 44.5179 24.2988 45.1528 24.3429C45.5542 24.365 46.1307 24.4091 46.4373 24.4312L46.9919 24.4753L47.043 24.0414C47.0649 23.8061 47.1014 23.534 47.1233 23.431C47.1379 23.328 47.2036 22.85 47.2692 22.3646C47.3276 21.8792 47.4152 21.2688 47.4517 21.0041C47.4882 20.7393 47.5393 20.4084 47.5539 20.2686C47.6049 19.8568 47.6779 19.364 47.7071 19.2022C47.7217 19.1213 47.7363 19.0331 47.7363 18.9963C47.7436 18.9669 47.8166 18.9595 47.9115 18.9743C48.0063 18.989 48.5099 19.0257 49.0281 19.0551C49.5462 19.0846 50.0571 19.114 50.1665 19.1287C50.4074 19.1581 50.4074 19.1655 50.6336 17.2901C50.6482 17.1283 50.6847 16.8783 50.7066 16.7385C50.7285 16.5988 50.7577 16.3635 50.7723 16.2237C50.8234 15.7972 50.8963 15.2382 50.9182 15.1206C50.9985 14.6867 51.0277 14.0983 50.9693 14.0615C50.9328 14.0395 50.5971 14.0027 50.2176 13.9806C49.8381 13.9586 49.3346 13.9292 49.0937 13.9144C48.8529 13.8924 48.342 13.863 47.9625 13.8336C46.9189 13.7674 46.2256 13.7232 45.7366 13.6865C45.3426 13.657 44.6128 13.6129 43.5472 13.5394C43.3502 13.532 42.7883 13.4953 42.3066 13.4658C41.8249 13.4364 41.4089 13.3996 41.3724 13.3776C41.3432 13.3629 41.3214 14.5249 41.3214 15.959Z" fill="white"/>
<path id="Vector_6" fill-rule="evenodd" clip-rule="evenodd" d="M11.7571 13.4584C11.7425 13.4731 11.3703 13.5099 10.9251 13.5393C10.4872 13.5613 10.0056 13.5981 9.86692 13.6128C9.59689 13.6349 8.93277 13.6937 8.04241 13.7599C7.25423 13.8261 7.01339 13.8555 6.96961 13.8996C6.93312 13.9291 6.70688 14.9587 6.612 15.4882C6.59741 15.5911 6.56092 15.7529 6.53902 15.8559C6.50253 16.025 6.47334 16.1427 6.40766 16.5546C6.30549 17.1061 6.269 17.2974 6.23251 17.3562C6.20331 17.4077 5.95518 16.812 5.8968 16.5546C5.8895 16.5104 5.79463 16.2457 5.69245 15.9662C5.29836 14.9145 5.05023 14.1865 5.05023 14.1056C5.05023 14.0467 4.94076 14.0247 4.70722 14.0467C4.51017 14.0688 4.02851 14.1056 3.62711 14.135C3.22572 14.157 2.80244 14.1938 2.67837 14.2012C2.5616 14.2085 2.14562 14.2453 1.75152 14.2674C1.36473 14.2968 0.99253 14.3335 0.912252 14.3483C0.839272 14.363 0.605735 14.3777 0.386795 14.3777L0 14.385L0.0437881 14.8778C0.0656822 15.1572 0.102172 15.4588 0.116768 15.5617C0.14596 15.7309 0.197046 16.1059 0.270027 16.7016C0.313815 17.0105 0.459775 18.0622 0.488967 18.2828C0.503563 18.3858 0.569245 18.8785 0.634927 19.386C0.70061 19.8934 0.766292 20.3715 0.780888 20.4524C0.788186 20.5333 0.824676 20.798 0.84657 21.0407C0.875762 21.2834 0.912252 21.5335 0.926848 21.5923C0.941444 21.6511 0.977934 21.9012 1.00713 22.1439C1.02902 22.3866 1.06551 22.6513 1.08011 22.7322C1.0947 22.8131 1.12389 23.0632 1.14579 23.2838C1.17498 23.5044 1.20417 23.7398 1.21877 23.7986C1.23336 23.8574 1.26985 24.0707 1.29175 24.2766C1.37203 24.9606 1.36473 24.9385 1.59097 24.9238C1.89019 24.9091 2.76595 24.8356 3.15274 24.7914C3.33519 24.7694 3.64171 24.74 3.83876 24.7179C4.15987 24.6885 4.35692 24.5782 4.28394 24.4605C4.26934 24.4384 4.24015 23.8942 4.21825 23.247C4.18906 22.5998 4.15257 21.6953 4.13798 21.2393C4.11608 20.7907 4.10878 20.4156 4.12338 20.4156C4.13798 20.4156 4.44449 21.1657 4.80209 22.0777L5.45162 23.7324L5.99897 23.6883C6.9915 23.6147 7.75779 23.5191 7.80158 23.475C7.83077 23.453 8.37082 20.6583 8.4511 20.1214C8.50949 19.7905 8.55328 19.7464 8.56057 20.0185C8.56057 20.1361 8.57517 20.2832 8.58247 20.3421C8.59706 20.4009 8.62626 20.7833 8.65545 21.1952C8.68464 21.5997 8.71383 21.9968 8.72843 22.0777C8.74302 22.1512 8.77951 22.5631 8.80871 22.9896C8.8379 23.4162 8.87439 23.8427 8.88169 23.9457C8.89628 24.0487 8.90358 24.159 8.91088 24.1957C8.91818 24.2472 9.34876 24.2325 10.3048 24.1296C10.4435 24.1148 10.8376 24.0781 11.1806 24.056C11.5236 24.0266 11.8228 23.9898 11.8593 23.9678C11.9323 23.9236 11.925 13.429 11.852 13.429C11.8155 13.429 11.7717 13.4437 11.7571 13.4584Z" fill="white"/>
<path id="Vector_7" fill-rule="evenodd" clip-rule="evenodd" d="M32.717 13.6424C32.6586 13.6791 32.6221 14.1498 32.6002 15.1279C32.5783 15.9149 32.5491 17.0842 32.5272 17.7314C32.5126 18.3786 32.4762 19.6215 32.4543 20.4893C32.4324 21.3571 32.3959 22.5559 32.3813 23.1442L32.3448 24.2179L32.987 24.3356C33.3373 24.4018 33.8701 24.4974 34.1693 24.5415C34.4685 24.5857 34.7969 24.6298 34.8991 24.6518C35.5705 24.7622 37.6504 24.8136 38.0737 24.7327C38.1978 24.7033 38.3948 24.6666 38.5116 24.6371C39.1903 24.4901 40.0807 23.8355 40.5405 23.1369C40.7594 22.7985 41.0075 22.1734 41.117 21.666C41.2338 21.1144 41.2338 19.798 41.117 19.3494C40.628 17.5108 39.0517 16.4444 36.8112 16.4444H36.2711L36.3149 15.628C36.3441 15.1721 36.3806 14.5911 36.4025 14.341C36.4317 13.988 36.4171 13.863 36.3441 13.8409C36.2492 13.8115 35.5559 13.7674 33.8409 13.6791C33.3592 13.6571 32.9286 13.6277 32.8848 13.6129C32.8411 13.5982 32.7681 13.6129 32.717 13.6424ZM37.7672 20.7687C38.1613 20.9452 38.2927 21.2174 38.1467 21.5777C37.9862 21.9454 37.6796 22.0558 36.9498 22.0116C36.6068 21.9896 36.2565 21.9528 36.1762 21.9307C36.096 21.916 35.9938 21.894 35.95 21.894C35.9062 21.8866 35.8843 21.7984 35.8989 21.6807C35.9135 21.5704 35.9281 21.2983 35.9427 21.0776C35.9573 20.7173 35.9792 20.6731 36.1398 20.6364C36.512 20.5481 37.4315 20.6217 37.7672 20.7687Z" fill="white"/>
<path id="Vector_8" fill-rule="evenodd" clip-rule="evenodd" d="M12.8518 13.7084C12.8445 13.7379 12.8445 13.7746 12.8445 13.7967C12.8445 13.8188 13.3116 15.2087 13.8809 16.8855C14.9074 19.9302 15.4037 21.4771 15.3697 21.5261C15.3478 21.5629 15.2748 21.585 15.2091 21.5629C15.1361 21.5482 14.888 21.5114 14.6471 21.482C14.4063 21.4526 13.983 21.357 13.6984 21.2614C13.4211 21.1658 13.1657 21.1143 13.1438 21.1364C13.1 21.1878 12.8153 22.7175 12.7351 23.3353C12.7107 23.5412 12.8178 23.703 13.0562 23.8207C13.8882 24.2399 14.9464 24.4532 16.0703 24.4164C18.3983 24.3502 20.0842 22.8352 21.3321 19.7023C21.697 18.7903 23.2807 13.9438 23.2296 13.9144C23.1639 13.8702 18.7705 13.7893 18.7705 13.8261C18.7705 13.8629 18.3472 16.4296 18.3035 16.6281C18.267 16.8341 18.1648 17.4224 18.1502 17.5107C18.0261 18.4447 17.9459 18.5108 17.8656 17.7681C17.8364 17.5474 17.8072 17.2827 17.7853 17.1797C17.7707 17.0767 17.6831 16.5178 17.6028 15.9295C17.5226 15.3411 17.4423 14.7822 17.4204 14.6792C17.4058 14.5763 17.3693 14.3483 17.3474 14.1644C17.3182 13.9806 17.289 13.8188 17.2744 13.8041C17.2598 13.7967 16.7928 13.7673 16.2381 13.7526C15.6835 13.7379 14.6982 13.7084 14.0487 13.6937C13.3919 13.6717 12.8518 13.679 12.8518 13.7084Z" fill="white"/>
<path id="Vector_9" fill-rule="evenodd" clip-rule="evenodd" d="M24.39 13.8703L24.1419 13.907L23.6091 16.2604C23.3172 17.5548 23.0618 18.6947 23.0472 18.7977C23.0107 18.9816 22.3611 21.8939 22.3101 22.1072C22.2955 22.166 22.1787 22.6808 22.0546 23.2471C21.9306 23.8134 21.8138 24.3355 21.7919 24.4091C21.7554 24.5341 21.8357 24.5414 23.2807 24.5267L24.806 24.5194L25.7328 22.644C26.2437 21.6144 26.6743 20.7834 26.6889 20.7981C26.7108 20.8201 27.6522 22.4602 27.9952 23.0779C28.0974 23.2765 28.2725 23.5854 28.3747 23.7766C28.7688 24.49 28.5864 24.4238 30.2649 24.4238C31.0969 24.4238 31.761 24.3944 31.761 24.3576C31.761 24.3208 31.6442 23.8428 31.4983 23.2912C31.3596 22.7396 31.2282 22.2395 31.2136 22.1807C31.2063 22.1219 30.9874 21.2761 30.7393 20.3053C30.4911 19.3346 30.2722 18.4888 30.2649 18.43C30.2503 18.3711 30.0679 17.6578 29.8562 16.8488C29.6519 16.0398 29.3964 15.0323 29.287 14.6057L29.0899 13.8335H26.8713C25.6453 13.8335 24.5287 13.8482 24.39 13.8703Z" fill="white"/>
<path id="Vector_10" fill-rule="evenodd" clip-rule="evenodd" d="M6.7069 26.7846C6.6923 26.7993 5.15242 26.8582 4.37153 26.8802C4.25476 26.8876 4.24017 26.9391 4.26206 27.2921L4.28395 27.6966L3.77309 27.851C2.04346 28.3732 0.970655 29.5351 0.54737 31.337C0.532774 31.4179 0.503582 31.8297 0.488986 32.2563C0.4379 34.0066 1.02174 35.3892 2.20402 36.3379C2.66379 36.7056 3.99933 37.1763 4.59777 37.1837C4.72913 37.1837 4.8386 37.2205 4.8459 37.2719C4.8459 37.3234 4.8605 37.397 4.8678 37.4411C4.88239 37.4779 4.88969 37.6249 4.89699 37.7573L4.90429 38L5.69247 37.9632C6.13035 37.9412 6.80177 37.9191 7.18857 37.9118L7.89647 37.9044V37.066L8.42923 36.9263C10.604 36.3673 11.8447 34.8376 11.9323 32.5946C12.0126 30.5648 11.2828 29.0939 9.76477 28.2187C9.2758 27.9392 8.29057 27.623 7.91837 27.623C7.77971 27.623 7.75051 27.5789 7.74321 27.3803C7.73592 27.2553 7.73592 27.1156 7.74321 27.0788C7.75051 27.0494 7.73592 26.9611 7.71402 26.8876C7.67753 26.7773 7.59725 26.7625 7.19586 26.7699C6.93314 26.7699 6.71419 26.7846 6.7069 26.7846ZM8.36355 32.8078C8.98388 33.1094 9.07145 33.911 8.5241 34.3155C8.33435 34.4552 7.72862 34.6832 7.66294 34.6391C7.62645 34.617 7.60455 34.1537 7.60455 33.6021V32.6019L7.85268 32.646C7.99135 32.6681 8.22488 32.7416 8.36355 32.8078ZM4.8386 32.8961C4.8459 33.1976 4.90429 34.161 4.93348 34.492L4.95537 34.7714L4.63426 34.7273C4.03582 34.6464 3.68552 34.3449 3.62713 33.8595C3.59064 33.5948 3.72931 33.227 3.92635 33.0579C4.05042 32.9476 4.61966 32.7122 4.78022 32.6975C4.80941 32.6975 4.83131 32.7858 4.8386 32.8961Z" fill="white"/>
<path id="Vector_11" fill-rule="evenodd" clip-rule="evenodd" d="M38.8109 26.9464C38.7963 26.9759 38.7963 27.1965 38.8036 27.4392C38.8182 27.6819 38.8473 28.5056 38.8765 29.2778C38.8984 30.0426 38.9349 31.0061 38.9495 31.4105C38.9641 31.815 39.0006 32.7564 39.0225 33.5065C39.0517 34.2567 39.0809 35.1466 39.0955 35.4922C39.1101 35.8379 39.1247 36.3968 39.132 36.7425C39.1466 37.3308 39.1612 37.3749 39.3071 37.3749C39.9348 37.3896 41.7301 37.4926 41.7739 37.522C41.8468 37.5661 41.9198 37.4191 41.949 37.1543C41.9563 37.0293 41.9928 36.4115 42.022 35.7864C42.0439 35.1613 42.0804 34.5288 42.0877 34.3891C42.1023 34.2493 42.1169 33.9846 42.1242 33.8007C42.1388 33.5212 42.1898 33.6757 42.4599 34.72C42.635 35.404 42.7956 36.0364 42.8102 36.1173C42.9123 36.6174 42.9415 36.6689 43.1386 36.6763C43.2408 36.6836 43.4451 36.6983 43.5838 36.7057C44.6055 36.7792 45.1309 36.7719 45.1893 36.6689C45.2185 36.6101 45.4302 35.9261 45.6637 35.1613C45.8899 34.3891 46.1016 33.7198 46.1308 33.6683C46.16 33.6168 46.1819 34.5067 46.1819 35.6467L46.1746 37.7279L46.5249 37.7426C48.3932 37.8383 48.8894 37.8383 48.8894 37.75C48.8967 37.6029 48.9916 36.5733 49.0208 36.3747C49.0354 36.2718 49.0646 35.9408 49.0938 35.6393C49.123 35.3378 49.1521 35.0068 49.1667 34.9039C49.1813 34.8009 49.2105 34.4847 49.2397 34.2052C49.2616 33.9184 49.2981 33.6095 49.3127 33.5065C49.3273 33.4036 49.3565 33.0726 49.3857 32.7711C49.4149 32.4696 49.4441 32.1166 49.4587 31.9989C49.4733 31.8739 49.5098 31.565 49.5316 31.3002C49.5608 31.0355 49.59 30.7413 49.6046 30.6383C49.6192 30.5354 49.6557 30.2044 49.6849 29.9029C49.7068 29.6014 49.7433 29.2704 49.7506 29.1675C49.7579 29.0645 49.7944 28.7188 49.8236 28.3953C49.8528 28.0717 49.8892 27.7481 49.9038 27.6745C49.9184 27.5789 49.8674 27.5495 49.6557 27.5421C49.5098 27.5348 49.2908 27.5274 49.1667 27.5127C49.05 27.498 48.5245 27.4686 47.9991 27.4392C47.4809 27.4171 46.8898 27.3803 46.6854 27.3656C46.3278 27.3362 45.4448 27.3142 45.2915 27.3215C45.2477 27.3289 44.985 27.9393 44.7077 28.6894C44.3865 29.5572 44.1895 30.0059 44.1603 29.9176C44.1384 29.8514 43.9925 29.2042 43.8392 28.4835L43.5546 27.1818L43.2626 27.1744C43.0948 27.1671 42.8977 27.1524 42.8175 27.145C42.6715 27.1303 41.6717 27.0715 40.1537 26.9906C39.7304 26.9685 39.2633 26.9391 39.1174 26.9244C38.9641 26.9097 38.8255 26.9244 38.8109 26.9464Z" fill="white"/>
<path id="Vector_12" fill-rule="evenodd" clip-rule="evenodd" d="M33.1257 27.1524C33.1184 27.1598 32.6002 27.1892 31.9799 27.2112C31.3596 27.2407 30.6882 27.2774 30.4838 27.2921C30.2868 27.3068 30.0605 27.3216 29.9875 27.3216C29.8489 27.3289 29.8489 27.5569 29.973 29.0204C29.9876 29.2043 30.024 29.6308 30.0459 29.9765C30.0678 30.3221 30.097 30.7855 30.1189 31.0061C30.1335 31.2267 30.17 31.69 30.1919 32.0357C30.2138 32.3814 30.2503 32.8373 30.2649 33.058C30.2868 33.2712 30.316 33.7346 30.3379 34.0876C30.3597 34.4332 30.3889 34.8671 30.4108 35.051C30.4254 35.2348 30.4619 35.6982 30.4838 36.0806C30.5495 37.0734 30.5933 37.5 30.6298 37.5368C30.6809 37.5882 31.2574 37.6765 31.9434 37.75C32.9068 37.8456 34.9429 37.8015 35.5559 37.6691C37.468 37.2647 38.5554 35.8526 38.5554 33.7787C38.5554 32.83 38.4824 32.374 38.2197 31.7268C37.811 30.7193 37.1542 30.1383 36.0668 29.8367C35.6216 29.7117 35.3516 29.6897 34.5634 29.7044L33.6001 29.7191L33.6147 28.4321L33.622 27.1451L33.3811 27.1377C33.2498 27.1377 33.1403 27.1451 33.1257 27.1524ZM35.2786 33.764C35.5997 33.8964 35.6435 33.9552 35.6508 34.2788C35.6581 34.5877 35.4173 34.8745 35.0889 34.948C34.8334 35.0069 33.6949 35.0069 33.6074 34.9554C33.5709 34.9333 33.549 34.6612 33.549 34.345C33.549 33.7934 33.5563 33.7713 33.7314 33.7272C34.1109 33.6242 35.0159 33.6463 35.2786 33.764Z" fill="white"/>
<path id="Vector_13" fill-rule="evenodd" clip-rule="evenodd" d="M12.3045 28.3659C12.3337 28.9469 12.3702 29.6088 12.3847 29.8294C12.4066 30.05 12.4358 30.6604 12.4577 31.19C12.4796 31.7121 12.5161 32.4255 12.5307 32.7711C12.5526 33.1168 12.5818 33.7272 12.6037 34.1317C12.6183 34.5362 12.6548 35.2643 12.684 35.7497C12.7059 36.2351 12.7351 36.8013 12.7424 37.0146C12.7496 37.2279 12.7715 37.4191 12.7934 37.4412C12.8153 37.4632 13.4722 37.5 14.253 37.5221L15.6689 37.5588L15.8951 37.1323C16.0192 36.8969 16.3257 36.3086 16.5811 35.8232C17.1066 34.801 17.4569 34.1685 17.4934 34.1685C17.508 34.1685 17.5517 36.4925 17.5444 37.3823V37.625L18.1794 37.6324C18.5224 37.6324 19.1792 37.6471 19.6244 37.6618C20.0769 37.6765 20.4637 37.6618 20.4782 37.6397C20.4928 37.6103 20.5293 37.2426 20.5585 36.816C20.5877 36.3895 20.6242 35.9262 20.6388 35.7864C20.6461 35.6467 20.6753 35.2643 20.7045 34.9407C20.7264 34.6171 20.7629 34.22 20.7775 34.0582C20.7921 33.8964 20.8286 33.4992 20.8504 33.1756C20.8723 32.852 20.9088 32.4402 20.9234 32.2563C20.9599 31.8813 21.011 31.2194 21.0694 30.4545C21.0913 30.1677 21.1278 29.7926 21.1424 29.6088C21.1643 29.4249 21.1935 28.9984 21.2153 28.6527C21.2445 28.307 21.2737 27.9173 21.281 27.7849C21.3029 27.5716 21.2883 27.5495 21.1132 27.5422C18.9092 27.4981 17.6904 27.4687 17.5955 27.4466C17.508 27.4319 17.3109 27.807 16.8 28.991C16.4206 29.8588 16.0994 30.5648 16.0921 30.5648C16.0775 30.5648 16.0702 29.8662 16.0702 29.0131C16.0775 28.16 16.0702 27.4539 16.0557 27.4392C16.0411 27.4245 15.1872 27.3951 14.1509 27.3657L12.2607 27.3142L12.3045 28.3659Z" fill="white"/>
<path id="Vector_14" fill-rule="evenodd" clip-rule="evenodd" d="M23.4412 27.4758C23.412 27.5346 23.2515 28.1303 23.0909 28.7996C22.2662 32.1385 21.4561 35.47 21.4342 35.5656C21.4196 35.6244 21.2956 36.1319 21.1569 36.6908L20.9015 37.6984L22.0254 37.7057C24.244 37.7204 23.9813 37.7719 24.2075 37.2792C24.3097 37.0438 24.6527 36.3231 24.9665 35.6759L25.5357 34.4992L26.3239 36.1245L27.1048 37.7498L28.6301 37.7645C29.8562 37.7793 30.1481 37.7646 30.1262 37.6837C30.1043 37.6322 30.0459 37.3748 29.9802 37.11C29.9218 36.8453 29.7905 36.2863 29.6883 35.8598C29.5861 35.4332 29.4402 34.8081 29.3599 34.4624C29.2796 34.1168 28.9804 32.8445 28.6958 31.631C28.4039 30.4175 28.163 29.3732 28.1484 29.3144C28.1338 29.2556 28.0827 29.0349 28.039 28.8364C27.9952 28.6304 27.9441 28.4172 27.9295 28.3583C27.8273 27.8803 27.7178 27.4979 27.6595 27.439C27.623 27.3949 26.7837 27.3655 25.5503 27.3655C23.7988 27.3655 23.4923 27.3802 23.4412 27.4758Z" fill="white"/>
</g>
</g>
</g>
<defs>
<clipPath id="clip0_42_286">
<rect width="51" height="38" fill="white"/>
</clipPath>
</defs>
</svg>
