<svg width="61" height="57" viewBox="0 0 61 57" fill="none" xmlns="http://www.w3.org/2000/svg">
<g clip-path="url(#clip0_41_221)">
<path d="M61 0H0V57H61V0Z" fill="#0D0E13"/>
<path d="M35.596 33.73C35.596 36.0445 33.7207 37.9196 31.4022 37.9196C29.0837 37.9196 27.2119 36.0445 27.2119 33.73C27.2119 31.4154 29.0873 29.5403 31.4022 29.5403C33.7171 29.5403 35.596 31.4154 35.596 33.73Z" fill="#0D0E13"/>
<path d="M29.1972 31.6458C29.1972 31.2133 29.5517 30.8589 29.9842 30.8589C30.4167 30.8589 30.7712 31.2098 30.7712 31.6458C30.7712 32.0817 30.4202 32.4327 29.9842 32.4327C29.5481 32.4327 29.1972 32.0817 29.1972 31.6458ZM42.4841 30.3662H40.4599V27.8105H42.5196C43.1577 27.8105 43.7284 28.3777 43.7284 29.0547C43.7284 29.8345 43.1258 30.3662 42.4841 30.3662ZM42.8386 35.3746H40.4599V32.7127H42.8386C43.6185 32.7127 44.2247 33.2798 44.2247 34.0277C44.2247 34.8429 43.6575 35.3782 42.8386 35.3782V35.3746ZM43.3349 37.8948C45.8555 37.8948 47.3834 36.4415 47.3834 34.1659C47.3834 32.8155 46.7098 31.7167 45.4655 31.185C46.4262 30.5469 46.6389 29.6218 46.6389 28.6648C46.6389 26.4636 44.9692 25.3613 42.6259 25.3613H35.4897V27.8105H37.5494V35.3746H35.4897V37.8948H43.3385H43.3349ZM27.3183 25.3613H22.5608V30.3662H19.6822V25.3613H14.9247V27.8105H16.9844V35.3746H14.9247V37.8948H19.6822V32.7127H22.5608V37.8948H27.3183V35.3746H25.3295V27.8105H27.3183V25.3613ZM48.4824 31.1141C49.4041 31.7875 50.0812 32.9608 50.0812 34.3113C50.0812 36.3707 49.4395 37.6112 48.3051 38.7491C47.1671 39.8869 45.2847 40.5958 43.0478 40.5958H32.8557V37.6609C34.451 37.0689 35.5889 35.5341 35.5889 33.7335C35.5889 31.9329 34.451 30.3945 32.8557 29.8026V20.4627H35.4826V22.8056H38.074V18.3324H24.7233V22.8056H27.3148V20.4627H29.9416V29.799C28.3464 30.391 27.2084 31.9293 27.2084 33.73C27.2084 35.5306 28.3464 37.0689 29.9416 37.6573V40.5922H12.2943V32.7091H14.3894V30.3662H12.2943V22.6603H22.0255V15.7378H40.8498V22.6603H42.165C44.1184 22.6603 46.0008 23.1211 47.2061 24.0108C48.5214 24.9678 49.3367 26.3892 49.3367 28.3422C49.3367 29.1575 49.1595 30.3662 48.4824 31.1105V31.1141Z" fill="white"/>
</g>
<defs>
<clipPath id="clip0_41_221">
<rect width="61" height="57" fill="white"/>
</clipPath>
</defs>
</svg>
