<svg width="178" height="23" viewBox="0 0 178 23" fill="none" xmlns="http://www.w3.org/2000/svg">
<g id="logo 1" clip-path="url(#clip0_42_229)">
<g id="&#208;&#161;&#208;&#187;&#208;&#190;&#208;&#185; 2">
<g id="Layer 1">
<path id="Vector" d="M23.0467 18.8934H16.9009L26.3656 0.340088H32.5114L23.0467 18.8934Z" fill="white"/>
<path id="Vector_2" d="M62.6572 18.8934H68.8005L59.3384 0.340088H53.1926L62.6572 18.8934Z" fill="white"/>
<path id="Vector_3" d="M9.46463 18.8934H15.6079L6.1458 0.340088H0L9.46463 18.8934Z" fill="white"/>
<path id="Vector_4" d="M51.897 0.340088H46.3496V18.891H51.897V0.340088Z" fill="white"/>
<path id="Vector_5" d="M93.7209 13.077L96.8521 16.2433C96.4299 16.6643 95.9719 17.0495 95.483 17.3946C94.9617 17.7653 94.4036 18.0837 93.8173 18.345C93.1975 18.6198 92.5522 18.8359 91.8904 18.9902C91.1812 19.1566 90.4544 19.2399 89.7251 19.2383C87.0116 19.2563 84.3958 18.2482 82.4232 16.4244C81.4914 15.5524 80.7414 14.5116 80.2149 13.3599C79.6715 12.1811 79.3947 10.9013 79.4035 9.60805C79.3933 8.31469 79.6701 7.03457 80.2149 5.85619C80.7442 4.71038 81.494 3.67501 82.4232 2.80656C83.3705 1.92197 84.4814 1.22214 85.6964 0.744525C86.976 0.241865 88.3438 -0.0110196 89.7226 0.000107729C90.4346 -0.00314203 91.1447 0.0717678 91.8397 0.223433C92.4911 0.3648 93.1258 0.571862 93.7336 0.841299C94.3179 1.1036 94.8757 1.41931 95.3993 1.78423C95.916 2.1473 96.4018 2.5506 96.8521 2.99018L93.7209 6.16884C93.2548 5.55892 92.6463 5.06713 91.9461 4.7346C91.2572 4.40471 90.4997 4.23488 89.7327 4.23832C89.0418 4.23133 88.3573 4.36836 87.7247 4.64031C87.1097 4.90749 86.5555 5.29218 86.0944 5.77182C85.62 6.26621 85.2465 6.84484 84.9941 7.47653C84.7181 8.15779 84.5803 8.88515 84.5884 9.61797C84.5819 10.3482 84.7196 11.0729 84.9941 11.752C85.2459 12.3855 85.6194 12.9658 86.0944 13.4616C86.5555 13.9413 87.1097 14.326 87.7247 14.5932C88.3568 14.8703 89.0426 15.0108 89.7353 15.0051C90.5068 15.0042 91.2674 14.8266 91.9563 14.4865C92.6466 14.1544 93.2502 13.6723 93.7209 13.077Z" fill="white"/>
<path id="Vector_6" d="M93.7209 13.077L96.8521 16.2433C96.4299 16.6643 95.9719 17.0495 95.483 17.3946C94.9617 17.7653 94.4036 18.0837 93.8173 18.345C93.1975 18.6198 92.5522 18.8359 91.8904 18.9902C91.1812 19.1566 90.4544 19.2399 89.7251 19.2383C87.0116 19.2563 84.3958 18.2482 82.4232 16.4244C81.4914 15.5524 80.7414 14.5116 80.2149 13.3599C79.6715 12.1811 79.3947 10.9013 79.4035 9.60805C79.3933 8.31469 79.6701 7.03457 80.2149 5.85619C80.7442 4.71038 81.494 3.67501 82.4232 2.80656C83.3705 1.92197 84.4814 1.22214 85.6964 0.744525C86.976 0.241865 88.3438 -0.0110196 89.7226 0.000107729C90.4346 -0.00314203 91.1447 0.0717678 91.8397 0.223433C92.4911 0.3648 93.1258 0.571862 93.7336 0.841299C94.3179 1.1036 94.8757 1.41931 95.3993 1.78423C95.916 2.1473 96.4018 2.5506 96.8521 2.99018L93.7209 6.16884C93.2548 5.55892 92.6463 5.06713 91.9461 4.7346C91.2572 4.40471 90.4997 4.23488 89.7327 4.23832C89.0418 4.23133 88.3573 4.36836 87.7247 4.64031C87.1097 4.90749 86.5555 5.29218 86.0944 5.77182C85.62 6.26621 85.2465 6.84484 84.9941 7.47653C84.7181 8.15779 84.5803 8.88515 84.5884 9.61797C84.5819 10.3482 84.7196 11.0729 84.9941 11.752C85.2459 12.3855 85.6194 12.9658 86.0944 13.4616C86.5555 13.9413 87.1097 14.326 87.7247 14.5932C88.3568 14.8703 89.0426 15.0108 89.7353 15.0051C90.5068 15.0042 91.2674 14.8266 91.9563 14.4865C92.6466 14.1544 93.2502 13.6723 93.7209 13.077Z" fill="white"/>
<path id="Vector_7" d="M75.641 0.340088H70.0936V18.891H75.641V0.340088Z" fill="white"/>
<path id="Vector_8" d="M41.2661 0.340088H35.7187V18.891H41.2661V0.340088Z" fill="white"/>
<path id="Vector_9" d="M106.124 0.340088H100.577V18.891H106.124V0.340088Z" fill="white"/>
<path id="Vector_10" d="M123.423 13.8687C123.628 13.8464 123.874 13.8091 124.158 13.762C124.399 13.7275 124.635 13.6616 124.858 13.566C124.944 13.5287 125.02 13.4715 125.078 13.3993C125.136 13.3271 125.176 13.2421 125.193 13.1516C125.233 12.974 125.255 12.7926 125.256 12.6106C125.265 12.363 125.223 12.1161 125.131 11.8853C125.039 11.6544 124.899 11.4444 124.721 11.2682C124.364 10.9208 123.763 10.7446 122.916 10.7446C122.569 10.7415 122.222 10.7748 121.882 10.8439C121.585 10.9003 121.304 11.0151 121.055 11.1813C120.814 11.3471 120.615 11.5654 120.474 11.8191C120.31 12.1313 120.209 12.4717 120.178 12.8215H119.07C119.091 12.3348 119.222 11.8586 119.453 11.427C119.657 11.0547 119.945 10.7324 120.294 10.4841C120.657 10.235 121.063 10.0548 121.494 9.95305C121.965 9.83768 122.45 9.78099 122.936 9.78432C123.385 9.78138 123.833 9.83221 124.27 9.93568C124.662 10.0242 125.032 10.1869 125.36 10.4146C125.675 10.6418 125.924 10.9442 126.085 11.293C126.269 11.7195 126.356 12.1802 126.339 12.6429V17.6528C126.339 18.0672 126.415 18.3302 126.564 18.4419C126.714 18.5535 127.021 18.5287 127.482 18.3625V19.1987L127.11 19.3054C126.953 19.3512 126.791 19.3746 126.628 19.3749C126.463 19.3754 126.299 19.3579 126.138 19.3228C125.98 19.3081 125.828 19.2496 125.702 19.154C125.598 19.064 125.512 18.9553 125.449 18.8339C125.381 18.7057 125.336 18.5673 125.314 18.4245C125.289 18.2695 125.276 18.1126 125.276 17.9555C124.837 18.4375 124.3 18.8245 123.699 19.092C123.094 19.3547 122.438 19.4875 121.775 19.4816C121.373 19.4832 120.973 19.4297 120.586 19.3228C120.217 19.2253 119.873 19.0565 119.572 18.8265C119.281 18.6052 119.046 18.3228 118.882 18.0002C118.704 17.6384 118.617 17.2402 118.629 16.8389C118.629 15.2756 119.727 14.3517 121.925 14.0672L123.423 13.8687ZM125.249 14.3923C124.802 14.5774 124.332 14.7026 123.852 14.7645C123.38 14.824 122.908 14.872 122.437 14.9084C121.748 14.9224 121.076 15.1114 120.485 15.4568C120.253 15.6137 120.068 15.827 119.947 16.0755C119.826 16.324 119.774 16.5992 119.795 16.8736C119.786 17.1322 119.845 17.3886 119.967 17.6181C120.083 17.8149 120.241 17.9844 120.431 18.1143C120.627 18.2549 120.848 18.3569 121.083 18.4146C121.331 18.4814 121.587 18.5148 121.844 18.5138C122.271 18.5141 122.698 18.4599 123.111 18.3526C123.505 18.2528 123.878 18.0847 124.212 17.8563C124.526 17.6379 124.786 17.3529 124.972 17.0225C125.165 16.6581 125.26 16.2517 125.249 15.8414V14.3923Z" fill="white"/>
<path id="Vector_11" d="M136.455 10.0324H137.545V18.3451C137.547 18.9391 137.482 19.5315 137.353 20.1118C137.239 20.6504 137.007 21.1584 136.673 21.6006C136.32 22.0466 135.858 22.3983 135.329 22.623C134.054 23.0859 132.659 23.1294 131.356 22.747C130.914 22.6044 130.501 22.3841 130.139 22.0969C129.844 21.8596 129.6 21.5668 129.422 21.2359C129.275 20.9639 129.188 20.6645 129.168 20.3575H130.319C130.387 20.6643 130.524 20.9526 130.72 21.2011C130.896 21.4146 131.115 21.5903 131.364 21.7173C131.624 21.8422 131.903 21.9259 132.19 21.9654C132.502 22.0138 132.818 22.0378 133.134 22.0374C133.748 22.0633 134.359 21.9352 134.908 21.6652C135.332 21.4374 135.683 21.0989 135.923 20.6875C136.161 20.2644 136.312 19.8 136.369 19.3202C136.436 18.8019 136.463 18.2793 136.45 17.757C136.11 18.3163 135.608 18.7644 135.007 19.0448C134.416 19.3298 133.767 19.4791 133.108 19.4815C132.464 19.4978 131.825 19.3607 131.247 19.082C130.736 18.8281 130.289 18.4642 129.942 18.0175C129.585 17.5515 129.323 17.0236 129.168 16.4617C128.997 15.8606 128.912 15.2394 128.915 14.6155C128.911 13.9747 128.99 13.336 129.151 12.7148C129.293 12.1568 129.552 11.6337 129.911 11.1788C130.261 10.741 130.712 10.3907 131.227 10.1565C131.838 9.89275 132.502 9.7656 133.169 9.78427C133.482 9.78609 133.793 9.8278 134.095 9.90833C134.413 9.99214 134.721 10.1112 135.012 10.2632C135.311 10.4195 135.586 10.6167 135.829 10.8488C136.074 11.0818 136.279 11.3516 136.437 11.6478H136.473L136.455 10.0324ZM136.455 14.6676C136.46 14.1429 136.39 13.6201 136.247 13.1143C136.123 12.668 135.917 12.2475 135.639 11.8736C135.373 11.5239 135.027 11.2401 134.63 11.0448C134.207 10.8379 133.74 10.7341 133.268 10.7421C132.833 10.7412 132.402 10.8255 132 10.9902C131.614 11.1499 131.268 11.3895 130.986 11.6925C130.69 12.0182 130.463 12.3987 130.319 12.8116C130.144 13.3052 130.058 13.825 130.066 14.3475C130.039 14.8933 130.089 15.4401 130.213 15.9729C130.32 16.4463 130.517 16.8959 130.793 17.2979C131.053 17.6718 131.401 17.979 131.808 18.1937C132.261 18.4236 132.767 18.5371 133.278 18.5237C133.743 18.5314 134.201 18.4238 134.612 18.2111C135.004 18.0055 135.345 17.7183 135.611 17.3699C135.894 17.0019 136.106 16.5865 136.237 16.1441C136.383 15.6651 136.457 15.1676 136.455 14.6676Z" fill="white"/>
<path id="Vector_12" d="M140.968 14.8885C140.965 15.3661 141.032 15.8417 141.168 16.3004C141.288 16.7193 141.488 17.1119 141.759 17.4567C142.024 17.787 142.362 18.0542 142.748 18.2384C143.178 18.4396 143.65 18.5398 144.127 18.5312C144.783 18.5483 145.427 18.3548 145.96 17.9803C146.479 17.5949 146.839 17.0402 146.974 16.417H148.189C148.063 16.841 147.887 17.249 147.664 17.6329C147.446 18.0017 147.167 18.3322 146.837 18.6106C146.495 18.8968 146.1 19.1166 145.674 19.2582C145.171 19.4207 144.644 19.4988 144.114 19.489C143.447 19.5055 142.784 19.3784 142.172 19.1168C141.648 18.8845 141.188 18.5342 140.829 18.0945C140.467 17.6416 140.202 17.1228 140.048 16.5684C139.874 15.9518 139.789 15.3146 139.794 14.6751C139.79 14.03 139.891 13.3884 140.093 12.7744C140.279 12.2098 140.568 11.6833 140.948 11.221C141.313 10.7783 141.775 10.4206 142.299 10.1739C142.866 9.91084 143.487 9.78004 144.114 9.79174C145.407 9.79174 146.422 10.2268 147.157 11.0969C147.892 11.9671 148.257 13.2309 148.252 14.8885H140.968ZM147.104 14.0002C147.107 13.5697 147.042 13.1413 146.914 12.7297C146.795 12.3543 146.604 12.0047 146.351 11.6999C146.095 11.4043 145.775 11.1678 145.415 11.0076C145.01 10.8332 144.57 10.7485 144.127 10.7595C143.689 10.7525 143.255 10.8442 142.859 11.0275C142.498 11.1976 142.177 11.4393 141.916 11.7371C141.649 12.0432 141.438 12.3914 141.29 12.7669C141.131 13.1652 141.027 13.5824 140.981 14.0076L147.104 14.0002Z" fill="white"/>
<path id="Vector_13" d="M151.465 19.2333H150.374V10.0324H151.465V11.3103C151.865 10.8888 152.319 10.5194 152.816 10.211C153.323 9.91567 153.905 9.76763 154.494 9.78421C155.047 9.77853 155.595 9.87797 156.109 10.077C156.622 10.2857 157.059 10.6411 157.362 11.0969C157.582 11.3997 157.722 11.7508 157.77 12.1192C157.814 12.4815 157.836 12.8461 157.836 13.211V19.2333H156.746V13.2284C156.746 12.4013 156.558 11.7801 156.183 11.3649C155.808 10.9496 155.185 10.742 154.314 10.742C153.999 10.7387 153.686 10.7899 153.389 10.8934C153.116 10.9888 152.86 11.1234 152.628 11.2929C152.198 11.6069 151.872 12.0386 151.693 12.5336C151.589 12.8086 151.522 13.0955 151.492 13.3872C151.47 13.6601 151.457 13.9554 151.457 14.2755L151.465 19.2333Z" fill="white"/>
<path id="Vector_14" d="M167.128 12.9282C166.973 12.3041 166.624 11.7423 166.129 11.3203C165.62 10.9227 164.982 10.7174 164.332 10.7421C163.832 10.7293 163.338 10.8457 162.899 11.0796C162.504 11.2992 162.168 11.607 161.918 11.9778C161.659 12.3637 161.468 12.79 161.355 13.2384C161.236 13.6966 161.176 14.1676 161.175 14.6404C161.173 15.1194 161.231 15.5969 161.348 16.0622C161.454 16.5049 161.642 16.9251 161.9 17.3029C162.151 17.6679 162.488 17.969 162.881 18.1813C163.327 18.413 163.827 18.5267 164.332 18.5113C165.044 18.5446 165.743 18.3093 166.284 17.8538C166.797 17.3716 167.126 16.7326 167.217 16.0424H168.381C168.291 16.5257 168.135 16.9948 167.917 17.4369C167.715 17.8439 167.439 18.2108 167.1 18.5188C166.756 18.828 166.351 19.0668 165.911 19.221C164.76 19.5902 163.511 19.5462 162.39 19.0969C161.866 18.8646 161.407 18.5143 161.048 18.0746C160.685 17.6196 160.419 17.097 160.267 16.5386C160.094 15.9194 160.009 15.2799 160.014 14.6379C160.01 14.0147 160.105 13.3946 160.293 12.7992C160.469 12.2361 160.749 11.7096 161.119 11.2458C161.484 10.7951 161.947 10.429 162.473 10.1739C163.051 9.89766 163.689 9.76069 164.332 9.77437C165.422 9.77437 166.303 10.0291 166.974 10.5386C167.645 11.0482 168.067 11.8414 168.241 12.9183L167.128 12.9282Z" fill="white"/>
<path id="Vector_15" d="M170.485 21.7196L170.929 21.7915C171.082 21.8177 171.237 21.8326 171.393 21.8362C171.53 21.8406 171.666 21.8178 171.794 21.7692C171.921 21.7206 172.038 21.6471 172.136 21.5533C172.336 21.3553 172.499 21.1243 172.617 20.8709C172.745 20.6015 172.851 20.3228 172.934 20.0372C173.005 19.78 173.103 19.5306 173.226 19.2928L169.577 10.0322H170.794L173.806 17.9355L176.819 10.0322H178L174.496 19.1067C174.278 19.6873 174.069 20.2084 173.87 20.6699C173.697 21.0822 173.485 21.4777 173.236 21.8511C173.04 22.145 172.787 22.398 172.491 22.5955C172.198 22.769 171.861 22.8552 171.52 22.8436C171.335 22.845 171.15 22.8334 170.967 22.8089C170.805 22.7881 170.644 22.7583 170.485 22.7196V21.7196Z" fill="white"/>
<path id="Vector_16" d="M114.222 16.4739C114.222 17.0196 114.057 17.5531 113.747 18.0069C113.437 18.4607 112.997 18.8143 112.482 19.0232C111.967 19.232 111.4 19.2867 110.853 19.1802C110.306 19.0737 109.803 18.8109 109.409 18.425C109.015 18.0391 108.746 17.5475 108.638 17.0122C108.529 16.477 108.585 15.9222 108.798 15.418C109.011 14.9138 109.373 14.4828 109.836 14.1796C110.3 13.8764 110.845 13.7146 111.403 13.7146C112.151 13.7146 112.868 14.0053 113.396 14.5228C113.925 15.0403 114.222 15.7421 114.222 16.4739ZM113.682 16.4739C113.682 16.0322 113.548 15.6004 113.298 15.2332C113.047 14.8659 112.69 14.5797 112.273 14.4107C111.857 14.2416 111.398 14.1974 110.955 14.2836C110.512 14.3697 110.106 14.5824 109.787 14.8948C109.468 15.2071 109.25 15.605 109.162 16.0382C109.074 16.4714 109.119 16.9205 109.292 17.3285C109.465 17.7366 109.757 18.0854 110.133 18.3308C110.508 18.5762 110.949 18.7072 111.4 18.7072C112.005 18.7072 112.586 18.4719 113.014 18.0531C113.442 17.6342 113.682 17.0662 113.682 16.4739ZM112.103 16.722L112.716 17.7146H111.91L111.38 16.7866H111.01V17.7171H110.315V15.1612H111.692C111.943 15.1451 112.192 15.2212 112.389 15.3746C112.475 15.4492 112.542 15.5417 112.586 15.6453C112.63 15.7488 112.649 15.8607 112.643 15.9727C112.649 16.1419 112.6 16.3088 112.503 16.4491C112.406 16.5828 112.264 16.68 112.103 16.7245V16.722ZM111.935 15.9776C111.937 15.9373 111.93 15.897 111.914 15.8596C111.899 15.8223 111.875 15.7889 111.844 15.7617C111.771 15.7085 111.681 15.6813 111.59 15.6848H111.02V16.2729H111.59C111.686 16.2787 111.78 16.2515 111.857 16.196C111.885 16.1665 111.907 16.1313 111.921 16.0927C111.934 16.0542 111.939 16.0132 111.935 15.9727V15.9776Z" fill="white"/>
</g>
</g>
</g>
<defs>
<clipPath id="clip0_42_229">
<rect width="178" height="23" fill="white"/>
</clipPath>
</defs>
</svg>
