<svg width="175" height="32" viewBox="0 0 175 32" fill="none" xmlns="http://www.w3.org/2000/svg">
<g id="logo3 1" clip-path="url(#clip0_42_276)">
<path id="Vector" d="M71.9985 14.2647H57.6852V7.26811H76.9136V3.74268H54.3364V7.26811V28.1495H71.9445C75.8874 28.1495 78.9661 25.0579 78.9661 21.0986C78.9661 17.8444 76.3735 14.2647 71.9985 14.2647ZM71.9445 24.624H57.6312V17.5732H71.9445C73.8889 17.5732 75.4553 19.1461 75.4553 21.0986C75.4553 23.0512 73.8889 24.624 71.9445 24.624Z" fill="white"/>
<path id="Vector_2" d="M52.0139 15.9461C52.0139 19.3088 50.6636 22.3461 48.4491 24.5698C46.2346 26.7936 43.2099 28.1495 39.8611 28.1495H25.6559V24.6241H39.8611C44.0741 24.6241 47.5849 21.5868 48.3411 17.5732H29.7068V14.2105H48.3411C47.5309 10.2512 44.0741 7.21391 39.8611 7.21391H25.6559V3.68848H39.8611C46.5587 3.74271 52.0139 9.22069 52.0139 15.9461Z" fill="white"/>
<path id="Vector_3" d="M21.3889 15.6207C22.5772 14.3732 23.3333 12.6376 23.3333 10.7393C23.3333 6.83425 20.2006 3.68848 16.3657 3.68848H0V28.0953H16.9599C20.8488 28.0953 23.9815 24.9495 23.9815 21.0444C23.9815 18.8749 22.9552 16.9224 21.3889 15.6207ZM16.3117 7.26815C18.2022 7.26815 19.7685 8.84103 19.7685 10.7393C19.7685 12.6376 18.2022 14.2105 16.3117 14.2105H3.34877V7.26815H16.3117ZM16.9599 24.6241H3.34877V17.5732H16.9599C18.9043 17.5732 20.4707 19.1461 20.4707 21.0987C20.4707 23.0512 18.9043 24.6241 16.9599 24.6241Z" fill="white"/>
<path id="Vector_4" d="M96.3046 28.1495H99.9234V24.3529H126.66V3.68848H96.3046V28.1495ZM99.9234 7.26815H123.041V20.7732H99.9234V7.26815Z" fill="white"/>
<path id="Vector_5" d="M130.116 24.3529H150.695V28.1495H154.26V24.3529H174.838V3.68848H130.062V24.3529H130.116ZM154.314 7.26815H171.328V20.7732H154.314V7.26815ZM133.681 7.26815H150.695V20.7732H133.681V7.26815Z" fill="white"/>
<path id="Vector_6" d="M89.3359 0H85.717V31.9458H89.3359V0Z" fill="white"/>
</g>
<defs>
<clipPath id="clip0_42_276">
<rect width="175" height="32" fill="white"/>
</clipPath>
</defs>
</svg>
