<svg width="25" height="25" viewBox="0 0 25 25" fill="none" xmlns="http://www.w3.org/2000/svg">
<g id="youtube-svgrepo-com 1">
<path id="Vector" d="M20.4896 8.47919C20.397 8.12219 20.2113 7.79618 19.9514 7.53447C19.6915 7.27276 19.3668 7.08473 19.0104 6.98959C16.85 6.73479 14.6753 6.61997 12.5 6.64584C10.3247 6.61997 8.15006 6.73479 5.9896 6.98959C5.63327 7.08473 5.30857 7.27276 5.0487 7.53447C4.78881 7.79618 4.60307 8.12219 4.51043 8.47919C4.27378 9.80621 4.15872 11.1521 4.16668 12.5C4.15832 13.8549 4.27338 15.2077 4.51043 16.5417C4.60787 16.8929 4.79575 17.2124 5.05531 17.4683C5.31486 17.7243 5.63702 17.9076 5.9896 18C8.15006 18.2548 10.3247 18.3697 12.5 18.3437C14.6753 18.3697 16.85 18.2548 19.0104 18C19.363 17.9076 19.6852 17.7243 19.9447 17.4683C20.2043 17.2124 20.3922 16.8929 20.4896 16.5417C20.7267 15.2077 20.8417 13.8549 20.8333 12.5C20.8414 11.1521 20.7263 9.80621 20.4896 8.47919ZM10.7917 14.9896V10.0313L15.1563 12.5L10.7917 14.9792V14.9896Z" fill="black"/>
</g>
</svg>
