<svg width="25" height="25" viewBox="0 0 25 25" fill="none" xmlns="http://www.w3.org/2000/svg">
<g id="instagram-svgrepo-com-3 1">
<path id="Vector" d="M16.7812 8.8125C16.7812 9.1875 16.4687 9.46875 16.125 9.46875C15.75 9.46875 15.4687 9.15625 15.4687 8.8125C15.4687 8.4375 15.7812 8.15625 16.125 8.15625C16.4687 8.125 16.7812 8.4375 16.7812 8.8125ZM19.3437 9.09375V15.9063C19.3437 17.8438 17.75 19.4375 15.8125 19.4375H9C7.0625 19.4375 5.46875 17.8438 5.46875 15.9063V9.09375C5.46875 7.15625 7.0625 5.5625 9 5.5625H15.8125C17.7812 5.5625 19.3437 7.15625 19.3437 9.09375ZM18.0312 9.09375C18.0312 7.875 17.0312 6.875 15.8125 6.875H9C7.78125 6.875 6.78125 7.875 6.78125 9.09375V15.9063C6.78125 17.125 7.78125 18.125 9 18.125H15.8125C17.0625 18.125 18.0625 17.125 18.0625 15.9063L18.0312 9.09375ZM16.0312 12.5C16.0312 10.5 14.4062 8.875 12.4062 8.875C10.4062 8.875 8.78125 10.5 8.78125 12.5C8.78125 14.5 10.4062 16.125 12.4062 16.125C14.4062 16.125 16.0312 14.5 16.0312 12.5ZM14.7187 12.5C14.7187 13.7812 13.6875 14.8125 12.4062 14.8125C11.125 14.8125 10.0937 13.7812 10.0937 12.5C10.0937 11.2188 11.125 10.1875 12.4062 10.1875C13.6875 10.1875 14.7187 11.2188 14.7187 12.5Z" fill="black"/>
</g>
</svg>
