<svg width="25" height="25" viewBox="0 0 25 25" fill="none" xmlns="http://www.w3.org/2000/svg">
<g id="vk-svgrepo-com 1">
<path id="Vector" d="M14.893 12.3047C14.5023 12.1578 14.5023 11.5969 14.4781 11.2063C14.3805 9.81485 14.8687 7.69063 14.2828 6.78751C13.868 6.25001 11.8656 6.29922 10.6453 6.37266C10.3031 6.42188 9.88827 6.49454 9.5953 6.64141C9.30233 6.78829 9.00937 7.03204 9.00937 7.25157C9.00937 7.56876 9.74218 7.52032 10.0101 7.93516C10.3031 8.37501 10.3031 9.32657 10.3031 10.1078C10.3031 11.0109 10.1562 12.2078 9.79062 12.2563C9.2289 12.2805 8.91171 11.7188 8.61874 11.3039C8.0328 10.4984 7.44687 9.49688 7.00702 8.52032C6.78749 8.00782 6.66484 7.4461 6.34765 7.22657C5.85937 6.88438 4.98046 6.86016 4.12577 6.88438C3.34452 6.9086 2.22109 6.81094 2.00155 7.27501C1.83046 7.78751 2.19687 8.27579 2.39218 8.69141C3.39296 10.8641 4.46718 12.7688 5.78593 14.575C7.00702 16.2594 8.1539 17.6023 10.4 18.3102C11.0351 18.5055 13.818 19.0672 14.3797 18.3102C14.575 18.0172 14.5266 17.3578 14.6242 16.8695C14.7219 16.3813 14.8437 15.893 15.3078 15.8688C15.6984 15.8445 15.918 16.1859 16.1625 16.4305C16.4312 16.6992 16.6508 16.9188 16.8461 17.1633C17.3101 17.6273 17.7984 18.2617 18.3844 18.5063C19.1898 18.8484 20.4351 18.7508 21.607 18.7016C22.5594 18.6773 23.243 18.482 23.3164 17.9203C23.3656 17.4805 22.8766 16.8461 22.5836 16.4797C21.8508 15.5766 21.5094 15.3078 20.6789 14.4773C20.3125 14.1109 19.8484 13.7203 19.8484 13.2813C19.8242 13.0125 20.0437 12.7688 20.2391 12.5C21.0937 11.2305 21.9484 10.3273 22.7297 9.0086C22.9492 8.61797 23.4625 7.71485 23.2672 7.27501C23.0476 6.78672 21.8266 6.93282 21.0695 6.93282C20.093 6.93282 18.8234 6.85938 18.5789 7.05469C18.1148 7.37188 17.9195 7.88516 17.7 8.37344C17.2117 9.49688 16.5523 10.6438 15.8687 11.4984C15.6242 11.7914 15.1609 12.4016 14.8922 12.3039L14.893 12.3047Z" fill="black"/>
</g>
</svg>
